<?xml version="1.0" encoding="UTF-8" standalone="no"?>
<!-- Created with Inkscape (http://www.inkscape.org/) -->

<svg
   xmlns:dc="http://purl.org/dc/elements/1.1/"
   xmlns:cc="http://creativecommons.org/ns#"
   xmlns:rdf="http://www.w3.org/1999/02/22-rdf-syntax-ns#"
   xmlns:svg="http://www.w3.org/2000/svg"
   xmlns="http://www.w3.org/2000/svg"
   xmlns:sodipodi="http://sodipodi.sourceforge.net/DTD/sodipodi-0.dtd"
   xmlns:inkscape="http://www.inkscape.org/namespaces/inkscape"
   version="1.1"
   id="svg56219"
   xml:space="preserve"
   width="800"
   height="800"
   viewBox="0 0 800 800"
   sodipodi:docname="smash-fascism-publicdomainvectors.org.svg"
   inkscape:version="0.92.4 (5da689c313, 2019-01-14)"><metadata
     id="metadata56225"><rdf:RDF><cc:Work
         rdf:about=""><dc:format>image/svg+xml</dc:format><dc:type
           rdf:resource="http://purl.org/dc/dcmitype/StillImage" /><dc:title></dc:title></cc:Work></rdf:RDF></metadata><defs
     id="defs56223"><clipPath
       clipPathUnits="userSpaceOnUse"
       id="clipPath56235"><path
         d="M 0,600 H 600 V 0 H 0 Z"
         id="path56233"
         inkscape:connector-curvature="0" /></clipPath></defs><sodipodi:namedview
     pagecolor="#ffffff"
     bordercolor="#666666"
     borderopacity="1"
     objecttolerance="10"
     gridtolerance="10"
     guidetolerance="10"
     inkscape:pageopacity="0"
     inkscape:pageshadow="2"
     inkscape:window-width="797"
     inkscape:window-height="480"
     id="namedview56221"
     showgrid="false"
     inkscape:zoom="0.295"
     inkscape:cx="400"
     inkscape:cy="400"
     inkscape:window-x="0"
     inkscape:window-y="0"
     inkscape:window-maximized="0"
     inkscape:current-layer="g56227" /><g
     id="g56227"
     inkscape:groupmode="layer"
     inkscape:label="smash-fascism-publicdomainvectors.org"
     transform="matrix(1.3333333,0,0,-1.3333333,0,800)"><g
       id="g56229"><g
         id="g56231"
         clip-path="url(#clipPath56235)"><path
           d="m 554.574,312.295 c 0,-134.115 -108.72,-242.84 -242.838,-242.84 -134.115,0 -242.839,108.725 -242.839,242.84 0,134.117 108.724,242.839 242.839,242.839 134.118,0 242.838,-108.722 242.838,-242.839"
           style="fill:#ff0000;fill-opacity:1;fill-rule:nonzero;stroke:none"
           id="path56237"
           inkscape:connector-curvature="0" /><path
           d="M 311.737,535.75 C 188.522,535.75 88.283,435.51 88.283,312.295 88.283,189.082 188.522,88.84 311.737,88.84 c 123.212,0 223.452,100.242 223.452,223.455 0,123.215 -100.24,223.455 -223.452,223.455 m 0,-485.679 c -144.591,0 -262.224,117.633 -262.224,262.224 0,144.59 117.633,262.224 262.224,262.224 144.589,0 262.221,-117.634 262.221,-262.224 0,-144.591 -117.632,-262.224 -262.221,-262.224"
           style="fill:#000000;fill-opacity:1;fill-rule:nonzero;stroke:none"
           id="path56239"
           inkscape:connector-curvature="0" /><path
           d="m 328.45,214.17 5.698,21.06 4.952,1.429 -0.086,0.316 c 4.447,1.549 9.231,3.345 14.258,5.349 l 4.78,1.905 -8.062,-29.017 z m 174.302,46.708 -119.729,-5.434 c 0.816,0.393 1.647,0.778 2.454,1.172 l 6.064,2.965 0.047,-0.082 2.015,1.092 1.711,0.837 -0.036,0.069 5.886,3.185 c 5.397,2.922 10.575,5.889 15.394,8.825 l 6.219,3.787 0.094,-0.125 1.803,1.281 1.471,0.897 -0.067,0.103 5.52,3.925 c 4.596,3.271 8.787,6.537 12.491,9.736 l 0.436,-0.434 4.928,5.229 4.82,4.343 -0.377,0.417 c 1.801,2.019 3.417,4.023 4.814,5.981 l 4.605,6.446 -19.751,27.157 c -0.799,2.229 -2.178,4.283 -4.138,5.896 -0.106,0.086 -0.219,0.163 -0.328,0.245 l -3.966,5.455 -1.512,-2.503 c -4.183,3.765 -15.602,13.523 -25.061,16.902 -2.512,0.898 -5.309,1.332 -8.553,1.332 -14.447,0 -35.898,-9.125 -46.866,-17.649 -0.533,-0.414 -1.041,-0.844 -1.528,-1.286 -5.586,0.868 -15.327,1.98 -21.595,1.98 -0.414,0 -0.876,0 -1.371,-0.012 l -0.692,0.471 -12.367,12.152 -1.102,-4.718 -4.087,1.428 -9.374,3.532 -0.174,-0.53 c -1.073,0.286 -2.109,0.543 -3.092,0.765 -0.192,0.043 -0.394,0.103 -0.602,0.167 l -0.71,0.212 -0.863,0.34 c -1.628,0.639 -3.534,1.575 -5.524,2.691 l -0.85,2.463 -0.695,-1.563 c -0.297,0.177 -0.59,0.341 -0.886,0.525 l -0.96,0.59 -0.938,0.62 c -2.32,1.529 -4.511,3.159 -6.514,4.842 l -0.887,0.748 -0.781,0.707 c -1.984,1.807 -3.603,3.569 -4.684,5.097 l -0.435,0.614 -0.296,0.535 c -0.271,0.49 -0.356,0.743 -0.357,0.743 -0.06,0.248 -0.122,0.495 -0.18,0.742 l 0.25,0.071 -0.465,1.591 3.571,6.169 -4.764,-2.092 -1.075,3.67 -2.592,9.311 -0.352,-0.099 c -0.01,0.026 -0.02,0.054 -0.03,0.082 l 0.436,0.17 -1.472,2.436 c -1.225,2.846 -2.314,4.543 -3.435,5.801 -0.163,0.236 -0.365,0.547 -0.598,0.912 l -0.519,0.81 -0.717,1.187 c -2.135,3.531 -4.699,8.11 -6.854,12.25 l -0.537,1.029 -0.577,1.142 c -1.169,2.311 -2.051,4.175 -2.728,5.689 l 1.043,2.187 -1.671,-0.745 c -0.614,1.448 -0.992,2.47 -1.21,3.121 0.523,2.866 0.221,5.861 -0.523,8.942 l 0.426,0.141 -4.677,12.084 c -0.311,0.824 -0.666,1.797 -0.865,2.456 l 0.459,0.081 -1.935,9.575 -1.797,11.431 -1.695,-0.592 c -0.699,1.269 -1.537,2.504 -2.547,3.637 -0.144,0.226 -0.624,1.039 -1.402,2.957 l -0.399,0.985 -0.382,1.053 c -0.763,2.102 -1.474,4.345 -2.044,6.147 -0.841,2.649 -1.301,4.109 -1.962,5.428 -1.915,3.83 -5.812,6.209 -10.173,6.209 -2.699,0 -5.082,0 -22.527,-9.65 l -0.034,0.108 -10.847,-6.26 -6.318,-3.62 0.012,-0.044 -2.488,-1.467 c -14.165,-2.391 -35.79,-19.239 -44.91,-26.798 l -7.875,-6.526 5.944,-8.324 c 8.876,-12.422 11.671,-19.9 13.715,-25.36 1.96,-5.242 3.812,-10.194 9.064,-14.828 1.758,-1.551 1.883,-2.223 2.488,-5.456 0.492,-2.627 1.163,-6.224 3.138,-10.174 2.772,-5.543 6.827,-8.249 9.509,-10.042 0.675,-0.449 1.597,-1.066 1.774,-1.249 0.001,-0.003 0.114,-0.224 0.227,-0.835 0.395,-2.176 0.638,-4.424 0.897,-6.806 0.854,-7.887 1.822,-16.826 9.057,-23.286 3.636,-3.249 6.426,-7.547 7.077,-9.553 -5.342,-12.951 -5.86,-23.041 -1.624,-30.176 l -0.111,-0.94 c -1.828,-15.575 3.671,-38.673 13.051,-51.111 -0.37,-0.935 -0.637,-1.893 -0.791,-2.867 l -1.031,-0.33 0.879,-2.285 c 0.056,-1.405 0.323,-2.807 0.821,-4.163 0.542,-1.476 1.334,-2.809 2.309,-3.976 l 13.65,-35.497 h 7.549 c 1.372,0 3.452,0.133 7.621,1.032 l 0.087,-0.324 6.445,1.885 6.826,1.67 -0.068,0.316 c 1.748,0.53 3.553,1.095 5.394,1.69 l 0.062,-0.175 5.902,2.128 5.671,1.86 -0.054,0.169 c 1.996,0.729 3.943,1.464 5.822,2.198 l 0.143,-0.272 4.437,2.011 -14.923,-55.071 2.356,0.115 -9.169,-22.79 -4.568,-16.449 148.305,6.728 10.758,39.546 19.197,0.927 -10.74,-39.607 15.052,0.689 40.094,1.889 8.004,0.406 22.275,82.177 -3.344,-0.161 z"
           style="fill:#ffffff;fill-opacity:1;fill-rule:nonzero;stroke:none"
           id="path56241"
           inkscape:connector-curvature="0" /><path
           d="m 243.808,229.391 c 3.005,0.924 5.917,1.89 8.654,2.87 l 0.929,-2.598 c 2.957,1.067 5.871,2.171 8.644,3.281 l -1.124,2.621 c 2.468,1.057 4.752,2.134 6.788,3.2 l 1.465,-2.798 c 2.993,1.357 5.615,2.678 7.655,3.9 -3.446,6.032 -4.738,8.615 -4.738,8.615 10.769,3.448 24.983,10.341 43.506,2.157 1.157,-3.045 3.339,-8.077 3.339,-8.077 1.784,0.324 4.065,0.887 6.737,1.658 l -0.846,3.118 c 0.028,0.007 2.719,0.74 7.286,2.193 l 0.949,-2.984 c 4.761,1.608 10.225,3.624 16.151,5.986 l -0.968,2.588 c 5.329,1.991 10.67,4.123 15.876,6.339 l 0.953,-2.239 c 5.083,2.258 10.317,4.689 15.584,7.265 l -0.985,2.038 c 5.214,2.524 10.313,5.161 15.154,7.84 l 1.117,-2.016 c 5.082,2.75 10.086,5.608 14.907,8.544 l -1.381,2.163 c 4.916,3.141 9.616,6.392 13.972,9.664 l 1.794,-2.39 c 4.945,3.518 9.496,7.1 13.495,10.699 l -2.227,2.45 c 1.902,1.726 3.75,3.49 5.497,5.242 l 2.288,-2.281 c 2.076,2.203 3.923,4.405 5.49,6.596 l -13.786,18.954 c -11.307,-18.737 -69.243,-49.752 -81.521,-55.244 -12.274,-5.493 -26.809,-10.407 -58.476,-10.015 -39.09,0.483 -76.566,-17.124 -86.366,-20.248 l 10.769,-27.999 c 1.535,0 4.351,0.517 7.943,1.396 l -0.693,3.155 c 0.028,0.005 2.957,0.652 7.382,1.832 l 0.791,-2.96 c 2.79,0.816 5.776,1.744 8.837,2.749 z"
           style="fill:#000000;fill-opacity:1;fill-rule:nonzero;stroke:none"
           id="path56243"
           inkscape:connector-curvature="0" /><path
           d="m 209.621,261.406 c 0,0 23.152,5.6 35.107,11.739 0.322,0.968 -27.246,26.276 -49.861,35.293 -1.939,-16.503 6.355,-41.862 14.754,-47.032"
           style="fill:#000000;fill-opacity:1;fill-rule:nonzero;stroke:none"
           id="path56245"
           inkscape:connector-curvature="0" /><path
           d="m 210.513,251.227 c 3.465,1.275 7.264,2.863 11.284,4.544 17.909,7.487 42.433,17.74 75.201,16.192 1.682,-0.08 3.358,-0.119 5.04,-0.119 58.666,0.006 116.879,47.265 130.775,64.166 0.906,1.103 0.747,2.732 -0.356,3.636 -1.103,0.906 -2.731,0.75 -3.638,-0.353 -8.411,-10.23 -68.396,-65.146 -131.579,-62.167 -33.927,1.607 -59.076,-8.91 -77.436,-16.586 -3.968,-1.659 -7.715,-3.226 -11.076,-4.462 -1.339,-0.493 -2.025,-1.979 -1.533,-3.318 0.385,-1.044 1.373,-1.694 2.427,-1.694 0.295,0 0.597,0.053 0.891,0.161"
           style="fill:#000000;fill-opacity:1;fill-rule:nonzero;stroke:none"
           id="path56247"
           inkscape:connector-curvature="0" /><path
           d="m 427.369,342.174 c 0,0 -13.464,12.492 -22.507,15.722 -9.047,3.231 -33.06,-5.385 -44.977,-14.646 -11.919,-9.261 -5.529,-34.675 -2.514,-48.675 28.391,11.068 49.69,27.756 69.998,47.599"
           style="fill:#000000;fill-opacity:1;fill-rule:nonzero;stroke:none"
           id="path56249"
           inkscape:connector-curvature="0" /><path
           d="m 196.802,313.098 c 8.512,-5.17 50.294,-29.857 50.563,-37.585 31.932,7.048 43.52,2.568 62.622,4.415 27.837,2.694 42.951,12.923 42.951,12.923 0,0 -5.382,38.554 -1.814,46.738 -7.627,1.292 -26.153,3.231 -25.459,1.077 0.691,-2.153 -11.37,-37.045 -15.246,-38.337 -3.878,-1.293 -71.938,25.844 -77.107,29.291 -5.169,3.446 -43.076,147.326 -54.276,147.756 -11.2,0.432 -41.352,-24.559 -41.352,-24.559 17.231,-24.122 13.784,-31.876 21.108,-38.337 7.322,-6.461 4.737,-12.062 8.183,-18.955 3.447,-6.891 10.77,-5.599 12.493,-15.075 1.722,-9.478 0.862,-18.862 6.461,-23.862 5.599,-5 12.923,-14.906 10.34,-20.938 -2.585,-6.03 -7.978,-19.383 0.533,-24.552"
           style="fill:#000000;fill-opacity:1;fill-rule:nonzero;stroke:none"
           id="path56251"
           inkscape:connector-curvature="0" /><path
           d="m 228.533,351.607 c 2.26,-14.215 8.747,-19.232 16.778,-22.14 8.032,-2.907 61.122,-27.167 64.354,-23.584 2.312,2.563 8.373,16.678 11.635,26.395 -0.713,-0.851 -1.769,-1.403 -2.956,-1.403 h -0.038 c -2.133,0.013 -3.865,1.771 -3.839,3.915 0.012,2.009 1.578,3.631 3.54,3.805 l 1.602,6.872 c -2.956,2.011 -7.277,4.003 -11.757,5.691 l -3.901,-11.742 c 1.137,-0.854 1.771,-2.291 1.496,-3.786 -0.336,-1.872 -1.965,-3.179 -3.801,-3.179 -0.232,0 -0.461,0.014 -0.709,0.066 -2.107,0.375 -3.502,2.402 -3.115,4.509 0.335,1.822 1.888,3.107 3.665,3.172 l 3.925,11.816 c 0.003,0.009 0.01,0.015 0.013,0.025 -3.613,1.262 -7.186,2.296 -10.083,2.951 -0.424,0.093 -0.874,0.22 -1.336,0.357 l -5.435,-12.208 c 0.769,-1.028 1.02,-2.408 0.529,-3.697 -0.582,-1.55 -2.056,-2.504 -3.619,-2.504 -0.465,0 -0.93,0.088 -1.383,0.255 -2.002,0.764 -3.011,2.999 -2.247,5.003 0.703,1.846 2.668,2.828 4.529,2.375 l 5.177,11.632 c -2.91,1.145 -6.275,2.878 -9.697,4.986 l -7.974,-11.174 c 0.599,-1.17 0.598,-2.611 -0.152,-3.813 -0.736,-1.176 -2.002,-1.822 -3.294,-1.822 -0.698,0 -1.411,0.181 -2.042,0.582 -1.822,1.136 -2.378,3.527 -1.241,5.337 1.023,1.656 3.086,2.25 4.822,1.493 l 7.7,10.79 c -2.593,1.71 -5.161,3.609 -7.532,5.601 l -11.346,-8.331 c 0.496,-1.349 0.236,-2.912 -0.817,-4.009 -0.763,-0.801 -1.783,-1.203 -2.803,-1.203 -0.956,0 -1.925,0.35 -2.676,1.073 -1.551,1.486 -1.603,3.942 -0.129,5.478 1.277,1.332 3.264,1.551 4.775,0.655 l 11.001,8.08 c -2.478,2.255 -4.641,4.588 -6.26,6.878 -0.063,-0.043 -0.114,-0.1 -0.187,-0.13 l -13.488,-5.92 c -0.159,-1.036 -0.726,-2.007 -1.67,-2.635 -0.657,-0.439 -1.407,-0.646 -2.144,-0.646 -1.254,0 -2.481,0.606 -3.231,1.732 -1.188,1.783 -0.711,4.187 1.073,5.375 1.783,1.176 4.199,0.697 5.376,-1.086 0.031,-0.045 0.047,-0.097 0.077,-0.145 l 12.822,5.625 c -0.657,1.188 -1.151,2.354 -1.424,3.475 -0.698,2.88 -1.445,5.754 -2.198,8.461 l -16.434,-4.674 c 0.009,-1.486 -0.826,-2.909 -2.264,-3.567 -0.517,-0.231 -1.073,-0.349 -1.602,-0.349 -1.473,0 -2.881,0.841 -3.528,2.276 -0.892,1.951 -0.039,4.237 1.911,5.131 1.632,0.744 3.498,0.258 4.588,-1.058 l 16.621,4.726 c -1.808,6.173 -3.595,11.064 -4.847,12.316 -0.261,0.26 -0.801,1.035 -1.527,2.17 l -16.199,-6.372 c -0.022,-1.476 -0.877,-2.874 -2.318,-3.499 -0.504,-0.22 -1.032,-0.337 -1.551,-0.337 -1.486,0 -2.919,0.879 -3.554,2.326 -0.853,1.964 0.039,4.252 2.003,5.105 1.652,0.728 3.522,0.202 4.584,-1.147 l 15.65,6.157 c -1.999,3.307 -4.684,8.038 -7.197,12.861 -0.023,-0.013 -0.037,-0.033 -0.061,-0.043 l -14.226,-6.364 c -0.156,-1.346 -0.99,-2.573 -2.329,-3.142 -0.491,-0.207 -1.009,-0.311 -1.512,-0.311 -1.499,0 -2.935,0.892 -3.567,2.379 -0.838,1.964 0.091,4.238 2.055,5.078 1.756,0.734 3.74,0.088 4.752,-1.441 l 13.713,6.134 c -2.292,4.533 -4.298,8.937 -5.302,12.101 l -14.26,-4.804 c 0.019,-1.54 -0.881,-3.01 -2.392,-3.641 -0.478,-0.195 -0.981,-0.298 -1.475,-0.298 -1.523,0 -2.97,0.904 -3.59,2.403 -0.815,1.978 0.128,4.251 2.106,5.066 1.601,0.66 3.378,0.152 4.437,-1.109 l 14.553,4.901 c -0.103,0.735 -0.087,1.316 0.084,1.688 1.146,2.486 -0.649,7.574 -2.507,12.386 -0.02,-0.009 -0.034,-0.024 -0.055,-0.033 l -17.52,-5.8 c 0.025,-1.559 -0.884,-3.041 -2.417,-3.658 -0.465,-0.182 -0.957,-0.285 -1.448,-0.285 -1.524,0 -2.984,0.916 -3.592,2.43 -0.801,1.989 0.155,4.25 2.145,5.052 1.6,0.645 3.362,0.131 4.406,-1.117 l 17.55,5.811 c -0.936,2.414 -1.756,4.621 -2.054,6.212 -0.402,2.143 -0.695,5.006 -1.149,7.898 l -19.641,-6.855 c -0.032,-1.521 -0.958,-2.952 -2.459,-3.535 -0.464,-0.182 -0.943,-0.271 -1.409,-0.271 -1.551,0 -3.023,0.942 -3.617,2.466 -0.775,1.991 0.207,4.24 2.196,5.028 1.634,0.637 3.427,0.075 4.458,-1.241 l 19.83,6.923 c 0.061,0.021 0.124,0.015 0.188,0.027 -0.646,3.195 -1.595,6.178 -3.244,7.977 -1.164,1.27 -2.294,3.537 -3.32,6.072 l -18.67,-7.518 c 0.066,-1.628 -0.891,-3.187 -2.499,-3.789 -0.438,-0.168 -0.905,-0.246 -1.357,-0.246 -1.563,0 -3.049,0.957 -3.63,2.522 -0.749,2.002 0.271,4.224 2.274,4.988 1.547,0.578 3.223,0.094 4.257,-1.073 l 18.698,7.529 c -1.664,4.579 -2.953,9.308 -3.506,10.414 -0.671,1.342 -16.916,-7.699 -26.841,-13.383 4.847,-14.782 12.349,-36.883 19.618,-58.307 9.458,-27.865 19.239,-56.68 23.579,-70.56 6.439,-20.593 11.717,-22.334 62.204,-38.998 4.746,-1.567 9.885,-3.262 15.457,-5.117 0.675,-0.226 1.042,-0.957 0.818,-1.635 -0.18,-0.542 -0.686,-0.885 -1.228,-0.885 -0.133,0 -0.273,0.021 -0.407,0.067 -5.569,1.854 -10.706,3.549 -15.452,5.115 -50.53,16.679 -57.023,18.823 -63.859,40.682 -4.33,13.849 -14.105,42.65 -23.559,70.501 -7.187,21.18 -14.604,43.03 -19.459,57.822 -3.17,-1.83 -5.278,-3.07 -5.278,-3.07 0,0 42.551,-116.296 44.812,-130.511"
           style="fill:#000000;fill-opacity:1;fill-rule:nonzero;stroke:none"
           id="path56253"
           inkscape:connector-curvature="0" /><path
           d="m 322.188,335.055 c 0.781,2.572 1.26,4.621 1.26,5.719 0,0.927 -0.591,1.905 -1.602,2.901 l -1.331,-5.713 c 0.945,-0.645 1.575,-1.703 1.673,-2.907"
           style="fill:#000000;fill-opacity:1;fill-rule:nonzero;stroke:none"
           id="path56255"
           inkscape:connector-curvature="0" /><path
           d="m 199.131,481.8 c -1.344,-0.503 -2.015,-1.99 -1.511,-3.321 0.386,-1.046 1.369,-1.68 2.416,-1.68 0.298,0 0.607,0.053 0.904,0.156 0.92,0.344 1.513,1.155 1.641,2.059 l -2.061,-0.831 c -0.161,-0.065 -0.322,-0.094 -0.483,-0.094 -0.513,0 -0.997,0.306 -1.2,0.81 -0.267,0.662 0.055,1.414 0.716,1.682 l 2.066,0.832 c -0.684,0.537 -1.617,0.716 -2.488,0.387"
           style="fill:#000000;fill-opacity:1;fill-rule:nonzero;stroke:none"
           id="path56257"
           inkscape:connector-curvature="0" /><path
           d="m 211.304,450.462 c -1.318,-0.53 -1.964,-2.041 -1.421,-3.359 0.399,-1.008 1.369,-1.615 2.391,-1.615 0.323,0 0.645,0.052 0.968,0.181 0.879,0.352 1.448,1.144 1.58,2.021 l -2.191,-0.726 c -0.134,-0.045 -0.271,-0.067 -0.405,-0.067 -0.541,0 -1.047,0.345 -1.228,0.887 -0.223,0.677 0.144,1.409 0.821,1.633 l 2.041,0.675 c -0.704,0.55 -1.663,0.724 -2.556,0.37"
           style="fill:#000000;fill-opacity:1;fill-rule:nonzero;stroke:none"
           id="path56259"
           inkscape:connector-curvature="0" /><path
           d="m 244.969,373.508 c -1.19,-0.801 -1.513,-2.404 -0.724,-3.593 0.503,-0.75 1.319,-1.149 2.157,-1.149 0.491,0 0.982,0.14 1.423,0.425 0.34,0.23 0.601,0.53 0.793,0.861 l -1.251,-0.549 c -0.169,-0.074 -0.345,-0.109 -0.518,-0.109 -0.498,0 -0.972,0.288 -1.184,0.773 -0.287,0.654 0.009,1.416 0.663,1.703 l 2.184,0.958 c -0.8,1.149 -2.371,1.457 -3.543,0.68"
           style="fill:#000000;fill-opacity:1;fill-rule:nonzero;stroke:none"
           id="path56261"
           inkscape:connector-curvature="0" /><path
           d="m 255.319,360.301 c -0.995,-1.035 -0.956,-2.663 0.077,-3.658 0.504,-0.478 1.138,-0.711 1.784,-0.711 0.685,0 1.357,0.271 1.875,0.801 0.609,0.642 0.822,1.513 0.652,2.314 l -1.924,-1.412 c -0.231,-0.17 -0.498,-0.252 -0.763,-0.252 -0.397,0 -0.791,0.183 -1.045,0.528 -0.421,0.576 -0.297,1.384 0.278,1.807 l 1.704,1.252 c -0.908,0.29 -1.936,0.067 -2.638,-0.669"
           style="fill:#000000;fill-opacity:1;fill-rule:nonzero;stroke:none"
           id="path56263"
           inkscape:connector-curvature="0" /><path
           d="m 283.065,341.743 c -0.518,-1.344 0.155,-2.831 1.498,-3.334 0.298,-0.116 0.607,-0.169 0.917,-0.169 1.036,0 2.016,0.635 2.418,1.655 0.223,0.593 0.204,1.208 0.013,1.762 l -0.699,-1.569 c -0.213,-0.481 -0.685,-0.768 -1.179,-0.768 -0.176,0 -0.355,0.036 -0.525,0.113 -0.654,0.291 -0.945,1.053 -0.655,1.707 l 0.997,2.24 c -1.172,0.168 -2.35,-0.485 -2.785,-1.637"
           style="fill:#000000;fill-opacity:1;fill-rule:nonzero;stroke:none"
           id="path56265"
           inkscape:connector-curvature="0" /><path
           d="m 205.128,466.098 c -1.331,-0.528 -1.99,-2.027 -1.474,-3.36 0.401,-1.007 1.383,-1.639 2.417,-1.639 0.31,0 0.62,0.063 0.929,0.18 0.839,0.333 1.411,1.047 1.588,1.863 l -2.077,-0.726 c -0.141,-0.049 -0.285,-0.073 -0.426,-0.073 -0.534,0 -1.034,0.334 -1.221,0.867 -0.235,0.675 0.121,1.411 0.795,1.646 l 2.129,0.744 c -0.705,0.633 -1.727,0.864 -2.66,0.498"
           style="fill:#000000;fill-opacity:1;fill-rule:nonzero;stroke:none"
           id="path56267"
           inkscape:connector-curvature="0" /><path
           d="m 230.715,403.928 c -1.305,-0.57 -1.901,-2.094 -1.331,-3.412 0.426,-0.97 1.369,-1.551 2.365,-1.551 0.348,0 0.697,0.077 1.033,0.221 0.777,0.337 1.298,1.017 1.476,1.788 l -1.967,-0.774 c -0.155,-0.062 -0.316,-0.091 -0.473,-0.091 -0.515,0 -1.002,0.311 -1.203,0.82 -0.261,0.664 0.066,1.415 0.729,1.676 l 2.156,0.849 c -0.729,0.674 -1.816,0.896 -2.785,0.474"
           style="fill:#000000;fill-opacity:1;fill-rule:nonzero;stroke:none"
           id="path56269"
           inkscape:connector-curvature="0" /><path
           d="m 237.525,388.549 c -1.305,-0.594 -1.874,-2.119 -1.278,-3.423 0.425,-0.945 1.368,-1.513 2.35,-1.513 0.362,0 0.724,0.077 1.073,0.232 0.836,0.384 1.367,1.166 1.483,2.018 l -2.32,-0.658 c -0.116,-0.036 -0.236,-0.051 -0.352,-0.051 -0.563,0 -1.082,0.37 -1.243,0.94 -0.195,0.686 0.204,1.4 0.889,1.596 l 2.01,0.572 c -0.733,0.546 -1.727,0.695 -2.612,0.287"
           style="fill:#000000;fill-opacity:1;fill-rule:nonzero;stroke:none"
           id="path56271"
           inkscape:connector-curvature="0" /><path
           d="m 299.103,336.794 c -0.259,-1.408 0.67,-2.752 2.067,-3.011 0.154,-0.025 0.322,-0.039 0.465,-0.039 1.227,0 2.312,0.866 2.546,2.12 0.155,0.835 -0.122,1.652 -0.668,2.228 l -0.717,-2.159 c -0.18,-0.543 -0.686,-0.888 -1.228,-0.888 -0.133,0 -0.271,0.022 -0.407,0.066 -0.678,0.227 -1.043,0.957 -0.818,1.635 l 0.69,2.083 c -0.959,-0.23 -1.751,-1.004 -1.93,-2.035"
           style="fill:#000000;fill-opacity:1;fill-rule:nonzero;stroke:none"
           id="path56273"
           inkscape:connector-curvature="0" /><path
           d="m 224.099,419.383 c -1.305,-0.554 -1.928,-2.08 -1.37,-3.385 0.424,-0.996 1.381,-1.577 2.39,-1.577 0.336,0 0.672,0.065 0.995,0.194 0.609,0.256 1.06,0.726 1.323,1.279 l -1.537,-0.689 c -0.171,-0.077 -0.35,-0.112 -0.527,-0.112 -0.495,0 -0.966,0.285 -1.181,0.766 -0.291,0.651 0.001,1.416 0.652,1.708 l 2.292,1.025 c -0.707,0.891 -1.935,1.257 -3.037,0.791"
           style="fill:#000000;fill-opacity:1;fill-rule:nonzero;stroke:none"
           id="path56275"
           inkscape:connector-curvature="0" /><path
           d="m 217.637,434.891 c -1.319,-0.543 -1.939,-2.055 -1.396,-3.373 0.399,-0.995 1.369,-1.59 2.39,-1.59 0.324,0 0.661,0.051 0.983,0.194 0.865,0.356 1.42,1.131 1.553,1.993 l -2.172,-0.731 c -0.136,-0.047 -0.275,-0.069 -0.411,-0.069 -0.539,0 -1.044,0.341 -1.225,0.88 -0.228,0.676 0.134,1.41 0.811,1.639 l 2.052,0.689 c -0.71,0.564 -1.688,0.746 -2.585,0.368"
           style="fill:#000000;fill-opacity:1;fill-rule:nonzero;stroke:none"
           id="path56277"
           inkscape:connector-curvature="0" /><path
           d="m 315.76,334.779 c -0.014,-1.435 1.136,-2.6 2.558,-2.612 h 0.026 c 1.407,0 2.57,1.137 2.585,2.56 0.006,0.717 -0.279,1.365 -0.742,1.837 l -0.49,-2.106 c -0.139,-0.594 -0.671,-0.997 -1.257,-0.997 -0.097,0 -0.197,0.011 -0.295,0.032 -0.696,0.163 -1.126,0.859 -0.965,1.553 l 0.511,2.195 c -1.103,-0.288 -1.92,-1.276 -1.931,-2.462"
           style="fill:#000000;fill-opacity:1;fill-rule:nonzero;stroke:none"
           id="path56279"
           inkscape:connector-curvature="0" /><path
           d="m 268.242,349.614 c -0.749,-1.203 -0.375,-2.806 0.84,-3.555 0.414,-0.258 0.892,-0.387 1.358,-0.387 0.865,0 1.706,0.427 2.196,1.213 0.353,0.577 0.452,1.234 0.337,1.85 l -1.06,-1.486 c -0.253,-0.353 -0.65,-0.543 -1.055,-0.543 -0.258,0 -0.52,0.078 -0.749,0.241 -0.58,0.415 -0.715,1.221 -0.301,1.803 l 1.404,1.966 c -1.099,0.337 -2.327,-0.079 -2.97,-1.102"
           style="fill:#000000;fill-opacity:1;fill-rule:nonzero;stroke:none"
           id="path56281"
           inkscape:connector-curvature="0" /><path
           d="m 425.74,148.807 38.781,1.829 0.008,0.029 16.228,59.871 -82.212,-3.983 5.247,18.885 78.702,3.57 5.611,20.204 -118.761,-5.389 -10.893,-39.205 -44.555,-2.155 10.55,38.983 -40.081,-1.889 -16.053,-59.239 84.525,4.098 -5.109,-18.384 -82.432,-3.915 -7.93,-19.714 -0.349,-1.252 125.159,5.677 10.753,39.523 42.263,2.044 -10.75,-39.647 z"
           style="fill:#000000;fill-opacity:1;fill-rule:nonzero;stroke:none"
           id="path56283"
           inkscape:connector-curvature="0" /></g></g></g></svg>