<?xml version="1.0"?>
<svg xmlns:rdf="http://www.w3.org/1999/02/22-rdf-syntax-ns#" xmlns="http://www.w3.org/2000/svg" xmlns:cc="http://creativecommons.org/ns#" xmlns:xlink="http://www.w3.org/1999/xlink" xmlns:dc="http://purl.org/dc/elements/1.1/" xmlns:svg="http://www.w3.org/2000/svg" id="svg2" viewBox="0 0 327 294" version="1.0">
  <defs id="defs4">
    <linearGradient id="linearGradient3456">
      <stop id="stop3458" stop-color="#7c0000" offset="0"/>
      <stop id="stop3460" stop-color="#ae0000" stop-opacity="0" offset="1"/>
    </linearGradient>
    <filter id="filter3392">
      <feGaussianBlur id="feGaussianBlur3394" stdDeviation="0.70410713"/>
    </filter>
    <filter id="filter3396">
      <feGaussianBlur id="feGaussianBlur3398" stdDeviation="0.70410713"/>
    </filter>
    <filter id="filter3400">
      <feGaussianBlur id="feGaussianBlur3402" stdDeviation="0.70410713"/>
    </filter>
    <filter id="filter3404">
      <feGaussianBlur id="feGaussianBlur3406" stdDeviation="0.62554739"/>
    </filter>
    <filter id="filter3408">
      <feGaussianBlur id="feGaussianBlur3410" stdDeviation="0.62554739"/>
    </filter>
    <filter id="filter3412">
      <feGaussianBlur id="feGaussianBlur3414" stdDeviation="0.62554739"/>
    </filter>
    <filter id="filter3416">
      <feGaussianBlur id="feGaussianBlur3418" stdDeviation="0.75524708"/>
    </filter>
    <filter id="filter3420">
      <feGaussianBlur id="feGaussianBlur3422" stdDeviation="0.75524708"/>
    </filter>
    <linearGradient id="linearGradient3490" x1="-207.06" xlink:href="#linearGradient3456" gradientUnits="userSpaceOnUse" y1="420.93" gradientTransform="translate(309.33 95.164)" x2="31.341" y2="420.93"/>
    <linearGradient id="linearGradient3492" x1="-8.5542" xlink:href="#linearGradient3456" gradientUnits="userSpaceOnUse" y1="611.94" gradientTransform="translate(35.139 4.8899)" x2="202.5" y2="611.94"/>
  </defs>
  <g id="layer1" transform="translate(-10.005 -8.5422)">
    <g id="g3474" transform="matrix(.99579 .091661 -.091661 .99579 44.253 -409.47)">
      <path id="path3424" fill-rule="evenodd" fill="#ae0000" d="m102.28 544.26l0.76-19.96 6.81-37.88 6.32-25.25 10.35-17.93 4.29-3.03 9.35-5.3 18.43-11.87 23.74-11.37 25.76-5.55 17.93-1.27 19.7 3.79 18.18 5.05 16.67 9.85 15.4 14.14 15.16 16.17 13.89 23.74 11.11 29.79 4.54 20.97-0.5 25.75-8.59 20.97-11.11 13.38-11.11 8.84-13.64 8.08-14.39 7.58-24.5 9.34-23.23 5.05-22.23-2.52-37.62-5.81-18.94-4.8-15.16-6.82-16.41-11.11-11.11-14.14-6.32-14.4-3.53-23.48z"/>
      <path id="path2518" d="m227.14 626.29c28.07-80.14 24.28-147.25 10.72-210.36" filter="url(#filter3412)" stroke="#fff" stroke-width=".7" fill="none"/>
      <path id="path2520" d="m212.14 624.51c19.84-57.3 20.07-130.29 11.43-210.36" filter="url(#filter3408)" stroke="#fff" stroke-width=".7" fill="none"/>
      <path id="path2522" d="m231.43 414.86c14.33 117.71 2.66 166.94-11.07 210.72" filter="url(#filter3404)" stroke="#fff" stroke-width=".7" fill="none"/>
      <path id="path2524" d="m131.43 438.79c65.23 30.18 83.02 84.08 110.36 133.22" filter="url(#filter3392)" stroke="#fff" stroke-width=".7" fill="none"/>
      <path id="path2526" d="m121.07 453.08c55.93 26.81 86.49 84.07 114.29 144.64" filter="url(#filter3400)" stroke="#fff" stroke-width=".7" fill="none"/>
      <path id="path2528" d="m124.29 444.86c39.88 19.89 78.89 54.85 115 140" filter="url(#filter3396)" stroke="#fff" stroke-width=".7" fill="none"/>
      <path id="path2530" stroke-linejoin="round" d="m236.07 405.93a7.1429 3.9286 0 1 1 -14.28 0 7.1429 3.9286 0 1 1 14.28 0z" fill-rule="evenodd" transform="translate(3.5714 2.5)" stroke="#000" stroke-width="10" fill="#ffab00"/>
      <path id="path3454" opacity=".83806" fill-rule="evenodd" fill="url(#linearGradient3490)" d="m102.28 544.26l0.76-19.96 6.81-37.88 6.32-25.25 10.35-17.93 4.29-3.03 9.35-5.3 18.43-11.87 23.74-11.37 25.76-5.55 17.93-1.27 19.7 3.79 18.18 5.05 16.67 9.85 15.4 14.14 15.16 16.17 13.89 23.74 11.11 29.79 4.54 20.97-0.5 25.75-8.59 20.97-11.11 13.38-11.11 8.84-13.64 8.08-14.39 7.58-24.5 9.34-23.23 5.05-22.23-2.52-37.62-5.81-18.94-4.8-15.16-6.82-16.41-11.11-11.11-14.14-6.32-14.4-3.53-23.48z"/>
      <path id="path2514" stroke="#000" stroke-width="3" fill="none" d="m102.5 534.86c4.26-41.18 11.82-73.91 24.64-93.21l11.43-5.72c135.15-98.66 223.18 62.78 198.49 129.49-9.81 29.73-62.5 53.24-102.06 61.59"/>
      <path id="path2512" d="m102.5 535.58c-23.514 20.27-48.484 38.74-72.143 66.43-3.121 3.65-4.993 9.55-2.857 14.64 15.358 36.61 39.814 67.17 79.64 82.5 17.01 4.65 30.29 0 43.57-4.64 34.16-13.58 57.85-42.27 83.93-67.5-65.34-6.82-133.45-10.56-132.14-91.43z" fill-rule="evenodd" stroke="#000" stroke-width="3" fill="#ae0000"/>
      <path id="path2536" d="m100.71 546.38s-55.953 43.17-58.21 58.48c-2.36 16.02 59.57 79.91 85 78.22 9.69-0.66 75.09-57.5 75.09-57.5" filter="url(#filter3416)" stroke="#fff" stroke-width=".7" fill="none"/>
      <path id="path2534" d="m101.52 553.34l-41.877 38.31c-12.307 11.25 59.747 77.93 70.357 70l52.32-39.11" filter="url(#filter3420)" stroke="#fff" stroke-width=".7" fill="none"/>
      <path id="path3464" fill-rule="evenodd" fill="url(#linearGradient3492)" d="m104 534.08c-23.514 20.27-48.484 38.74-72.143 66.43-3.122 3.65-4.993 9.55-2.857 14.64 15.358 36.61 39.814 67.17 79.64 82.5 17.01 4.65 30.29 0 43.57-4.64 34.16-13.58 57.85-42.27 83.93-67.5-65.34-6.82-133.45-10.56-132.14-91.43z"/>
    </g>
  </g>
  <metadata>
    <rdf:RDF>
      <cc:Work>
        <dc:format>image/svg+xml</dc:format>
        <dc:type rdf:resource="http://purl.org/dc/dcmitype/StillImage"/>
        <cc:license rdf:resource="http://creativecommons.org/licenses/publicdomain/"/>
        <dc:publisher>
          <cc:Agent rdf:about="http://openclipart.org/">
            <dc:title>Openclipart</dc:title>
          </cc:Agent>
        </dc:publisher>
        <dc:title>Red cap</dc:title>
        <dc:date>2009-06-16T00:24:48</dc:date>
        <dc:description>A simple red cap.</dc:description>
        <dc:source>http://openclipart.org/detail/26691/red-cap-by-laobc</dc:source>
        <dc:creator>
          <cc:Agent>
            <dc:title>laobc</dc:title>
          </cc:Agent>
        </dc:creator>
        <dc:subject>
          <rdf:Bag>
            <rdf:li>clip art</rdf:li>
            <rdf:li>clipart</rdf:li>
            <rdf:li>clothing</rdf:li>
            <rdf:li>hat</rdf:li>
            <rdf:li>image</rdf:li>
            <rdf:li>media</rdf:li>
            <rdf:li>public domain</rdf:li>
            <rdf:li>svg</rdf:li>
          </rdf:Bag>
        </dc:subject>
      </cc:Work>
      <cc:License rdf:about="http://creativecommons.org/licenses/publicdomain/">
        <cc:permits rdf:resource="http://creativecommons.org/ns#Reproduction"/>
        <cc:permits rdf:resource="http://creativecommons.org/ns#Distribution"/>
        <cc:permits rdf:resource="http://creativecommons.org/ns#DerivativeWorks"/>
      </cc:License>
    </rdf:RDF>
  </metadata>
</svg>
